<svg width="128" height="128" viewBox="0 0 128 128" fill="none" xmlns="http://www.w3.org/2000/svg">
<path d="M103.881 77.7L103.92 76.8853L115.171 50.5433H120.253V51.358L109.002 77.7H103.881ZM91.6221 77.7V50.5433H96.8594V77.7H91.6221ZM103.92 77.7L92.6307 51.358V50.5433H97.7517L109.002 76.8853V77.7H103.92ZM116.024 77.7V50.5433H121.262V77.7H116.024Z" fill="black"/>
<path d="M69.1977 77.7L69.2365 76.8853L80.4871 50.5433H85.5692V51.358L74.3187 77.7H69.1977ZM56.9385 77.7V50.5433H62.1758V77.7H56.9385ZM69.2365 77.7L57.9471 51.358V50.5433H63.0681L74.3187 76.8853V77.7H69.2365ZM81.3406 77.7V50.5433H86.5779V77.7H81.3406Z" fill="black"/>
<path d="M32.1107 77.7V73.9756H39.4042C41.2146 73.9756 42.7535 73.5618 44.0208 72.7342C45.2881 71.9066 46.258 70.7556 46.9305 69.2814C47.6288 67.8072 47.9779 66.0873 47.9779 64.1216C47.9779 62.1301 47.6288 60.3973 46.9305 58.9231C46.258 57.4488 45.2881 56.3108 44.0208 55.5091C42.7535 54.6814 41.2146 54.2676 39.4042 54.2676H32.1107V50.5433H39.4042C41.9905 50.5433 44.2148 51.1252 46.077 52.2891C47.9391 53.4271 49.3745 55.0177 50.3832 57.0609C51.3919 59.0782 51.8962 61.4318 51.8962 64.1216C51.8962 66.8114 51.3919 69.178 50.3832 71.2212C49.3745 73.2385 47.9391 74.8291 46.077 75.993C44.2148 77.131 41.9905 77.7 39.4042 77.7H32.1107ZM29.8994 77.7V50.5433H33.7789V77.7H29.8994Z" fill="black"/>
<path d="M15.66 78.243C13.7978 78.243 12.1426 77.868 10.6942 77.1179C9.27172 76.3679 8.14666 75.3204 7.31903 73.9755C6.4914 72.6047 6.05173 71.0012 6 69.1649L9.45276 68.4278L9.87951 68.5054C9.87951 69.6951 10.1123 70.7426 10.5778 71.6478C11.0434 72.553 11.7029 73.2643 12.5564 73.7815C13.4099 74.2729 14.4315 74.5186 15.6212 74.5186C16.6816 74.5186 17.5997 74.3247 18.3756 73.9367C19.1774 73.5488 19.7981 73.0185 20.2378 72.3461C20.6775 71.6478 20.8973 70.8201 20.8973 69.8632C20.8973 68.3631 20.3671 67.2122 19.3067 66.4104C18.2722 65.5828 16.9273 65.169 15.272 65.169H13.2159V61.6386H15.3496C16.7721 61.6386 17.9489 61.2894 18.88 60.5911C19.811 59.8928 20.2766 58.91 20.2766 57.6427C20.2766 56.8668 20.0826 56.1814 19.6947 55.5865C19.3067 54.9917 18.7636 54.5261 18.0653 54.1899C17.367 53.8537 16.5652 53.6856 15.66 53.6856C14.6254 53.6856 13.7202 53.9054 12.9443 54.3451C12.1943 54.7848 11.5865 55.4055 11.1209 56.2073C10.6813 56.9832 10.4356 57.9013 10.3838 58.9617L9.9571 59.0393L6.58193 58.341C6.63365 56.7633 7.04747 55.3538 7.82337 54.1123C8.59927 52.845 9.65967 51.8492 11.0046 51.1251C12.3753 50.375 13.9401 50 15.6988 50C17.354 50 18.8153 50.3233 20.0826 50.9699C21.3758 51.5906 22.3844 52.4441 23.1086 53.5304C23.8587 54.6166 24.2337 55.8581 24.2337 57.2547C24.2337 59.1428 23.6388 60.6428 22.4491 61.755C21.2594 62.8671 19.7076 63.5266 17.7937 63.7335V62.9188C19.242 62.9188 20.4964 63.2292 21.5568 63.8499C22.6172 64.4707 23.4319 65.3241 24.0009 66.4104C24.5699 67.4967 24.8544 68.7511 24.8544 70.1736C24.8544 71.7254 24.4794 73.1091 23.7293 74.3247C22.9793 75.5402 21.906 76.4972 20.5094 77.1955C19.1386 77.8938 17.5221 78.243 15.66 78.243Z" fill="black"/>
</svg>
